# xmcd CD database file
#
# Track frame offsets:
#	183
#	66948
#	91795
#	117498
#	171055
#	180223
#	214188
#	237770
#	272115
#
# Disc length: 4014 seconds
#
# Revision: 1
# Processed by: cddbd v1.5.1PL0 Copyright (c) Steve Scherf et al.
# Submitted via: CDex 1.51
#
DISCID=750fac09
DTITLE=Jorge Dalto - Solo Piano
DYEAR=1983
DGENRE=Jazz
TTITLE0=Impresiones demi viaje a Bs.As.
TTITLE1=Libe A Whisper
TTITLE2=Hotel del Giobo
TTITLE3=Adios Nonono
TTITLE4=Giant Steps
TTITLE5=This Masquerade
TTITLE6=A Maria Cervantes
TTITLE7=Ninos
TTITLE8=Todo el dia sambando
EXTD=YEAR: 1983
EXTT0=
EXTT1=
EXTT2=
EXTT3=
EXTT4=
EXTT5=
EXTT6=
EXTT7=
EXTT8=
PLAYORDER=
